<?xml version="1.0" encoding="utf-8"?>
<!-- Generator: Adobe Illustrator 19.0.0, SVG Export Plug-In . SVG Version: 6.00 Build 0)  -->
<svg version="1.1" id="Layer_1" xmlns="http://www.w3.org/2000/svg" xmlns:xlink="http://www.w3.org/1999/xlink" x="0px" y="0px"
	 viewBox="0 0 325 31" style="enable-background:new 0 0 325 31;" xml:space="preserve">
<style type="text/css">
	.st0{fill:#FFFFFF;}
</style>
<g id="XMLID_93_">
	<path id="XMLID_94_" class="st0" d="M7,6v6.7h14.9v5.8H7v6.8h17V31H0.1V0.2h23.5V6H7z"/>
	<path id="XMLID_96_" class="st0" d="M57.5,25l-2.4,6h-7.2L61.3,0.2h7.2L81.6,31h-7.4l-2.4-6H57.5z M64.7,7.5l-4.9,12h9.7L64.7,7.5z
		"/>
	<path id="XMLID_99_" class="st0" d="M120.9,22.2h-0.7h-6.4V31h-7V0.2h13.4c8.1,0,12.6,3.9,12.6,10.7c0,4.8-2,8.2-5.8,9.9l6.6,10.2
		h-7.9L120.9,22.2z M120.2,16.4c3.8,0,6-1.8,6-5.3c0-3.4-2.2-5.1-6-5.1h-6.4v10.4H120.2z"/>
	<path id="XMLID_102_" class="st0" d="M174,6.1V31h-7V6.1h-9.4V0.2h25.7v5.9H174z"/>
	<path id="XMLID_104_" class="st0" d="M230,31V18.9h-14V31h-7V0.2h7V13h14V0.2h7V31H230z"/>
	<path id="XMLID_106_" class="st0" d="M265.8,31V0.2h7V31H265.8z"/>
	<path id="XMLID_108_" class="st0" d="M308.5,6v6.7h14.9v5.8h-14.9v6.8h17V31h-23.9V0.2H325V6H308.5z"/>
</g>
</svg>
